<svg width="32" height="32" viewBox="0 0 32 32" fill="none" xmlns="http://www.w3.org/2000/svg">
<path fill-rule="evenodd" clip-rule="evenodd" d="M4.26754 27.1563C4.17017 27.5097 4.4921 27.836 4.84683 27.7433L10.3304 26.311C12.0614 27.2486 14.0102 27.7467 15.9944 27.7467H16.0003C22.5297 27.7467 27.8521 22.4551 27.8521 15.9504C27.8521 12.7977 26.6215 9.83246 24.3843 7.60559C22.147 5.37881 19.1737 4.14819 16.0002 4.14819C9.47093 4.14819 4.14844 9.43983 4.14844 15.9446C4.1477 18.0139 4.6939 20.047 5.7322 21.8398L4.26754 27.1563ZM12.2439 10.3013C12.4617 10.3071 12.7031 10.3189 12.9328 10.8288C13.0851 11.1682 13.3417 11.793 13.5507 12.302C13.7133 12.6981 13.8472 13.024 13.8807 13.0908C13.9572 13.2431 14.0043 13.4189 13.9042 13.624C13.8924 13.6481 13.8813 13.6713 13.8706 13.6935C13.7903 13.8602 13.7331 13.9787 13.5981 14.1338C13.5426 14.1975 13.4848 14.2674 13.4271 14.337C13.3258 14.4595 13.2251 14.5812 13.1388 14.6671C12.9858 14.8194 12.8268 14.9836 13.0034 15.2883C13.1801 15.5929 13.7983 16.595 14.7109 17.4037C15.692 18.2772 16.5451 18.6453 16.9764 18.8314C17.0601 18.8675 17.1279 18.8968 17.1777 18.9215C17.4839 19.0739 17.6664 19.0504 17.843 18.8454C18.0197 18.6402 18.6084 17.9546 18.8146 17.6499C19.0147 17.3452 19.2208 17.3921 19.5034 17.4975C19.786 17.603 21.2932 18.3413 21.5993 18.4937C21.6598 18.5238 21.7164 18.551 21.7689 18.5761C21.9819 18.6783 22.1267 18.7477 22.1881 18.8512C22.2646 18.9801 22.2646 19.5896 22.0115 20.3045C21.7525 21.0194 20.5043 21.7051 19.939 21.7578C19.8855 21.7628 19.8323 21.7693 19.7775 21.7759C19.2595 21.8386 18.6019 21.9181 16.2593 20.996C13.3726 19.8608 11.4671 17.0444 11.0818 16.4749C11.0514 16.43 11.0305 16.399 11.0193 16.384L11.0127 16.3753C10.8375 16.1408 9.76517 14.706 9.76517 13.2256C9.76517 11.8092 10.4629 11.0718 10.7811 10.7355C10.8013 10.7142 10.8199 10.6945 10.8368 10.6763C11.1193 10.3716 11.4491 10.2955 11.6552 10.2955C11.8613 10.2955 12.0673 10.2955 12.2439 10.3013Z" fill="white"/>
</svg>
