<svg width="32" height="32" viewBox="0 0 32 32" fill="none" xmlns="http://www.w3.org/2000/svg">
<path fill-rule="evenodd" clip-rule="evenodd" d="M24.2483 24.7931L24.2491 24.791L24.2699 24.7391L27.8521 6.67836V6.6197C27.8521 6.16971 27.6859 5.77686 27.3241 5.54122C27.0074 5.33497 26.6433 5.32028 26.388 5.33966C26.118 5.36015 25.8635 5.42754 25.6872 5.48364C25.5965 5.5125 25.5207 5.54031 25.4664 5.56134C25.4391 5.57189 25.4171 5.58085 25.401 5.58752L25.3852 5.59416L5.41233 13.4292L5.40683 13.4312C5.39605 13.4351 5.38178 13.4405 5.36455 13.4472C5.3302 13.4605 5.28345 13.4797 5.22852 13.5046C5.12067 13.5534 4.97167 13.6289 4.82055 13.7324C4.5639 13.9081 4.07518 14.3242 4.15771 14.9839C4.22606 15.5303 4.60271 15.8773 4.85664 16.057C4.99276 16.1533 5.12298 16.2227 5.21834 16.2681C5.26666 16.2911 5.3077 16.3088 5.33827 16.3212C5.35359 16.3274 5.3664 16.3324 5.37632 16.3362L5.38901 16.3409L5.39712 16.3439L8.89152 17.5203C8.87972 17.7396 8.90147 17.9631 8.95961 18.1837L10.71 24.8236C10.9175 25.6109 11.6298 26.1593 12.4439 26.1587C13.1737 26.1581 13.821 25.7167 14.096 25.0579L16.8287 22.1359L21.5222 25.7342L21.5889 25.7634C22.0153 25.9495 22.4137 26.0084 22.778 25.9586C23.1417 25.909 23.4308 25.7564 23.6479 25.5827C23.8615 25.4118 24.008 25.2189 24.1001 25.0736C24.1468 24.9998 24.1817 24.935 24.2059 24.8861C24.218 24.8616 24.2276 24.8409 24.2348 24.8247L24.2438 24.8039L24.247 24.7962L24.2483 24.7931ZM10.6922 17.7269C10.6524 17.576 10.7149 17.4167 10.8466 17.3331L22.6991 9.80621C22.6991 9.80621 23.3962 9.38298 23.3713 9.80621C23.3713 9.80621 23.4957 9.88095 23.1222 10.2294C22.7678 10.5604 14.6746 18.3741 13.8557 19.1648C13.8084 19.2104 13.7802 19.2628 13.7635 19.3264L12.4426 24.3668L10.6922 17.7269Z" fill="white"/>
</svg>
